<mxfile host="app.diagrams.net" agent="Mozilla/5.0 (Windows NT 10.0; Win64; x64) AppleWebKit/537.36 (KHTML, like Gecko) Chrome/140.0.0.0 Safari/537.36 Edg/140.0.0.0" version="28.2.3">
  <diagram name="Страница — 1" id="9fPz7adAcuHHXp9n-IKm">
    <mxGraphModel grid="1" page="1" gridSize="10" guides="1" tooltips="1" connect="1" arrows="1" fold="1" pageScale="1" pageWidth="827" pageHeight="1169" background="#EBEBEB" math="0" shadow="0">
      <root>
        <mxCell id="0" />
        <mxCell id="1" parent="0" />
        <mxCell id="0tF0IYAXUl_EJ7apRhJu-5" value="&lt;font style=&quot;font-size: 14px;&quot;&gt;Клиент&lt;/font&gt;" style="rounded=0;whiteSpace=wrap;html=1;" vertex="1" parent="1">
          <mxGeometry x="20" y="300" width="120" height="60" as="geometry" />
        </mxCell>
        <mxCell id="0tF0IYAXUl_EJ7apRhJu-6" value="&lt;font style=&quot;font-size: 14px;&quot;&gt;Продажа&lt;/font&gt;" style="rounded=0;whiteSpace=wrap;html=1;" vertex="1" parent="1">
          <mxGeometry x="330" y="20" width="120" height="60" as="geometry" />
        </mxCell>
        <mxCell id="0tF0IYAXUl_EJ7apRhJu-10" style="rounded=0;orthogonalLoop=1;jettySize=auto;html=1;exitX=0;exitY=0.5;exitDx=0;exitDy=0;entryX=1;entryY=0.5;entryDx=0;entryDy=0;strokeColor=default;endArrow=none;endFill=0;" edge="1" parent="1" source="0tF0IYAXUl_EJ7apRhJu-9" target="0tF0IYAXUl_EJ7apRhJu-6">
          <mxGeometry relative="1" as="geometry" />
        </mxCell>
        <mxCell id="0tF0IYAXUl_EJ7apRhJu-9" value="&lt;u&gt;ID&lt;/u&gt;" style="ellipse;whiteSpace=wrap;html=1;" vertex="1" parent="1">
          <mxGeometry x="490" y="10" width="70" height="40" as="geometry" />
        </mxCell>
        <mxCell id="0tF0IYAXUl_EJ7apRhJu-12" value="кол-во лекарства" style="ellipse;whiteSpace=wrap;html=1;" vertex="1" parent="1">
          <mxGeometry x="570" y="30" width="70" height="40" as="geometry" />
        </mxCell>
        <mxCell id="0tF0IYAXUl_EJ7apRhJu-14" style="edgeStyle=none;rounded=0;orthogonalLoop=1;jettySize=auto;html=1;exitX=0;exitY=0.5;exitDx=0;exitDy=0;entryX=1.005;entryY=0.627;entryDx=0;entryDy=0;entryPerimeter=0;endArrow=none;endFill=0;" edge="1" parent="1" source="0tF0IYAXUl_EJ7apRhJu-12" target="0tF0IYAXUl_EJ7apRhJu-6">
          <mxGeometry relative="1" as="geometry" />
        </mxCell>
        <mxCell id="0tF0IYAXUl_EJ7apRhJu-16" style="edgeStyle=none;rounded=0;orthogonalLoop=1;jettySize=auto;html=1;exitX=0;exitY=0.5;exitDx=0;exitDy=0;entryX=1;entryY=0.75;entryDx=0;entryDy=0;endArrow=none;endFill=0;" edge="1" parent="1" source="0tF0IYAXUl_EJ7apRhJu-15" target="0tF0IYAXUl_EJ7apRhJu-6">
          <mxGeometry relative="1" as="geometry" />
        </mxCell>
        <mxCell id="0tF0IYAXUl_EJ7apRhJu-15" value="фамилия кассира" style="ellipse;whiteSpace=wrap;html=1;" vertex="1" parent="1">
          <mxGeometry x="510" y="60" width="70" height="40" as="geometry" />
        </mxCell>
        <mxCell id="0tF0IYAXUl_EJ7apRhJu-17" value="общая сумма" style="ellipse;whiteSpace=wrap;html=1;" vertex="1" parent="1">
          <mxGeometry x="440" y="90" width="70" height="40" as="geometry" />
        </mxCell>
        <mxCell id="0tF0IYAXUl_EJ7apRhJu-18" style="edgeStyle=none;rounded=0;orthogonalLoop=1;jettySize=auto;html=1;exitX=0;exitY=0;exitDx=0;exitDy=0;endArrow=none;endFill=0;" edge="1" parent="1" source="0tF0IYAXUl_EJ7apRhJu-17">
          <mxGeometry relative="1" as="geometry">
            <mxPoint x="440" y="80" as="targetPoint" />
          </mxGeometry>
        </mxCell>
        <mxCell id="0tF0IYAXUl_EJ7apRhJu-19" value="дата продажи" style="ellipse;whiteSpace=wrap;html=1;" vertex="1" parent="1">
          <mxGeometry x="240" y="10" width="70" height="40" as="geometry" />
        </mxCell>
        <mxCell id="0tF0IYAXUl_EJ7apRhJu-20" style="edgeStyle=none;rounded=0;orthogonalLoop=1;jettySize=auto;html=1;exitX=1;exitY=0.5;exitDx=0;exitDy=0;entryX=-0.012;entryY=0.187;entryDx=0;entryDy=0;entryPerimeter=0;endArrow=none;endFill=0;" edge="1" parent="1" source="0tF0IYAXUl_EJ7apRhJu-19" target="0tF0IYAXUl_EJ7apRhJu-6">
          <mxGeometry relative="1" as="geometry" />
        </mxCell>
        <mxCell id="0tF0IYAXUl_EJ7apRhJu-22" style="edgeStyle=none;rounded=0;orthogonalLoop=1;jettySize=auto;html=1;exitX=1;exitY=0.5;exitDx=0;exitDy=0;entryX=0;entryY=0.75;entryDx=0;entryDy=0;endArrow=none;endFill=0;" edge="1" parent="1" source="0tF0IYAXUl_EJ7apRhJu-21" target="0tF0IYAXUl_EJ7apRhJu-6">
          <mxGeometry relative="1" as="geometry" />
        </mxCell>
        <mxCell id="0tF0IYAXUl_EJ7apRhJu-21" value="список лекарств" style="ellipse;whiteSpace=wrap;html=1;" vertex="1" parent="1">
          <mxGeometry x="250" y="60" width="70" height="40" as="geometry" />
        </mxCell>
        <mxCell id="0tF0IYAXUl_EJ7apRhJu-23" value="содержит" style="rhombus;whiteSpace=wrap;html=1;" vertex="1" parent="1">
          <mxGeometry x="320" y="120" width="110" height="60" as="geometry" />
        </mxCell>
        <mxCell id="0tF0IYAXUl_EJ7apRhJu-24" style="edgeStyle=none;rounded=0;orthogonalLoop=1;jettySize=auto;html=1;exitX=0.5;exitY=0;exitDx=0;exitDy=0;entryX=0.371;entryY=0.974;entryDx=0;entryDy=0;entryPerimeter=0;" edge="1" parent="1" source="0tF0IYAXUl_EJ7apRhJu-23" target="0tF0IYAXUl_EJ7apRhJu-6">
          <mxGeometry relative="1" as="geometry">
            <mxPoint x="374" y="80" as="targetPoint" />
            <Array as="points" />
          </mxGeometry>
        </mxCell>
        <mxCell id="0tF0IYAXUl_EJ7apRhJu-25" value="&lt;font style=&quot;font-size: 14px;&quot;&gt;Лекарство&lt;/font&gt;" style="rounded=0;whiteSpace=wrap;html=1;" vertex="1" parent="1">
          <mxGeometry x="340" y="260" width="120" height="60" as="geometry" />
        </mxCell>
        <mxCell id="0tF0IYAXUl_EJ7apRhJu-26" value="1" style="text;html=1;align=center;verticalAlign=middle;whiteSpace=wrap;rounded=0;" vertex="1" parent="1">
          <mxGeometry x="360" y="80" width="60" height="20" as="geometry" />
        </mxCell>
        <mxCell id="0tF0IYAXUl_EJ7apRhJu-28" style="edgeStyle=none;rounded=0;orthogonalLoop=1;jettySize=auto;html=1;exitX=0.5;exitY=1;exitDx=0;exitDy=0;entryX=0.25;entryY=1;entryDx=0;entryDy=0;" edge="1" parent="1" source="0tF0IYAXUl_EJ7apRhJu-23" target="0tF0IYAXUl_EJ7apRhJu-29">
          <mxGeometry relative="1" as="geometry" />
        </mxCell>
        <mxCell id="0tF0IYAXUl_EJ7apRhJu-29" value="M" style="text;html=1;align=center;verticalAlign=middle;whiteSpace=wrap;rounded=0;" vertex="1" parent="1">
          <mxGeometry x="360" y="240" width="60" height="20" as="geometry" />
        </mxCell>
        <mxCell id="0tF0IYAXUl_EJ7apRhJu-32" style="edgeStyle=none;rounded=0;orthogonalLoop=1;jettySize=auto;html=1;exitX=0;exitY=1;exitDx=0;exitDy=0;entryX=0.833;entryY=0;entryDx=0;entryDy=0;endArrow=none;endFill=0;entryPerimeter=0;" edge="1" parent="1" source="0tF0IYAXUl_EJ7apRhJu-30" target="0tF0IYAXUl_EJ7apRhJu-25">
          <mxGeometry relative="1" as="geometry" />
        </mxCell>
        <mxCell id="0tF0IYAXUl_EJ7apRhJu-30" value="срок годности" style="ellipse;whiteSpace=wrap;html=1;" vertex="1" parent="1">
          <mxGeometry x="460" y="180" width="70" height="40" as="geometry" />
        </mxCell>
        <mxCell id="0tF0IYAXUl_EJ7apRhJu-34" style="edgeStyle=none;rounded=0;orthogonalLoop=1;jettySize=auto;html=1;exitX=0;exitY=1;exitDx=0;exitDy=0;endArrow=none;endFill=0;entryX=1;entryY=0;entryDx=0;entryDy=0;" edge="1" parent="1" source="0tF0IYAXUl_EJ7apRhJu-33" target="0tF0IYAXUl_EJ7apRhJu-25">
          <mxGeometry relative="1" as="geometry">
            <mxPoint x="460" y="257" as="targetPoint" />
          </mxGeometry>
        </mxCell>
        <mxCell id="0tF0IYAXUl_EJ7apRhJu-33" value="производитель" style="ellipse;whiteSpace=wrap;html=1;" vertex="1" parent="1">
          <mxGeometry x="525" y="210" width="90" height="40" as="geometry" />
        </mxCell>
        <mxCell id="0tF0IYAXUl_EJ7apRhJu-38" style="edgeStyle=none;rounded=0;orthogonalLoop=1;jettySize=auto;html=1;exitX=0;exitY=0.5;exitDx=0;exitDy=0;entryX=1;entryY=0.5;entryDx=0;entryDy=0;endArrow=none;endFill=0;" edge="1" parent="1" source="0tF0IYAXUl_EJ7apRhJu-37" target="0tF0IYAXUl_EJ7apRhJu-25">
          <mxGeometry relative="1" as="geometry" />
        </mxCell>
        <mxCell id="0tF0IYAXUl_EJ7apRhJu-37" value="цена за ед." style="ellipse;whiteSpace=wrap;html=1;" vertex="1" parent="1">
          <mxGeometry x="605" y="300" width="70" height="40" as="geometry" />
        </mxCell>
        <mxCell id="0tF0IYAXUl_EJ7apRhJu-40" style="edgeStyle=none;rounded=0;orthogonalLoop=1;jettySize=auto;html=1;exitX=0;exitY=0.5;exitDx=0;exitDy=0;entryX=1;entryY=0.75;entryDx=0;entryDy=0;endArrow=none;endFill=0;" edge="1" parent="1" source="0tF0IYAXUl_EJ7apRhJu-39" target="0tF0IYAXUl_EJ7apRhJu-25">
          <mxGeometry relative="1" as="geometry" />
        </mxCell>
        <mxCell id="0tF0IYAXUl_EJ7apRhJu-39" value="кол-во в аптеке" style="ellipse;whiteSpace=wrap;html=1;" vertex="1" parent="1">
          <mxGeometry x="535" y="330" width="70" height="40" as="geometry" />
        </mxCell>
        <mxCell id="0tF0IYAXUl_EJ7apRhJu-42" style="edgeStyle=none;rounded=0;orthogonalLoop=1;jettySize=auto;html=1;exitX=0;exitY=0.5;exitDx=0;exitDy=0;entryX=1;entryY=1;entryDx=0;entryDy=0;endArrow=none;endFill=0;" edge="1" parent="1" source="0tF0IYAXUl_EJ7apRhJu-41" target="0tF0IYAXUl_EJ7apRhJu-25">
          <mxGeometry relative="1" as="geometry" />
        </mxCell>
        <mxCell id="0tF0IYAXUl_EJ7apRhJu-41" value="раздел" style="ellipse;whiteSpace=wrap;html=1;" vertex="1" parent="1">
          <mxGeometry x="440" y="335" width="70" height="40" as="geometry" />
        </mxCell>
        <mxCell id="0tF0IYAXUl_EJ7apRhJu-43" value="показания к применению" style="ellipse;whiteSpace=wrap;html=1;" vertex="1" parent="1">
          <mxGeometry x="280" y="190" width="90" height="40" as="geometry" />
        </mxCell>
        <mxCell id="0tF0IYAXUl_EJ7apRhJu-44" style="edgeStyle=none;rounded=0;orthogonalLoop=1;jettySize=auto;html=1;exitX=1;exitY=1;exitDx=0;exitDy=0;entryX=0.25;entryY=0;entryDx=0;entryDy=0;endArrow=none;endFill=0;" edge="1" parent="1" source="0tF0IYAXUl_EJ7apRhJu-43" target="0tF0IYAXUl_EJ7apRhJu-25">
          <mxGeometry relative="1" as="geometry" />
        </mxCell>
        <mxCell id="0tF0IYAXUl_EJ7apRhJu-46" style="edgeStyle=none;rounded=0;orthogonalLoop=1;jettySize=auto;html=1;exitX=0.5;exitY=1;exitDx=0;exitDy=0;entryX=0;entryY=0;entryDx=0;entryDy=0;endArrow=none;endFill=0;" edge="1" parent="1" source="0tF0IYAXUl_EJ7apRhJu-45" target="0tF0IYAXUl_EJ7apRhJu-25">
          <mxGeometry relative="1" as="geometry" />
        </mxCell>
        <mxCell id="0tF0IYAXUl_EJ7apRhJu-45" value="&lt;u&gt;название&lt;/u&gt;" style="ellipse;whiteSpace=wrap;html=1;" vertex="1" parent="1">
          <mxGeometry x="200" y="190" width="70" height="40" as="geometry" />
        </mxCell>
        <mxCell id="0tF0IYAXUl_EJ7apRhJu-47" value="аннотация" style="ellipse;whiteSpace=wrap;html=1;" vertex="1" parent="1">
          <mxGeometry x="200" y="240" width="70" height="40" as="geometry" />
        </mxCell>
        <mxCell id="0tF0IYAXUl_EJ7apRhJu-48" style="edgeStyle=none;rounded=0;orthogonalLoop=1;jettySize=auto;html=1;exitX=1;exitY=0.5;exitDx=0;exitDy=0;entryX=-0.012;entryY=0.145;entryDx=0;entryDy=0;entryPerimeter=0;endArrow=none;endFill=0;" edge="1" parent="1" source="0tF0IYAXUl_EJ7apRhJu-47" target="0tF0IYAXUl_EJ7apRhJu-25">
          <mxGeometry relative="1" as="geometry" />
        </mxCell>
        <mxCell id="0tF0IYAXUl_EJ7apRhJu-50" value="ФИО" style="ellipse;whiteSpace=wrap;html=1;" vertex="1" parent="1">
          <mxGeometry x="10" y="230" width="70" height="40" as="geometry" />
        </mxCell>
        <mxCell id="0tF0IYAXUl_EJ7apRhJu-51" style="edgeStyle=none;rounded=0;orthogonalLoop=1;jettySize=auto;html=1;exitX=0.5;exitY=1;exitDx=0;exitDy=0;entryX=0.207;entryY=0.002;entryDx=0;entryDy=0;entryPerimeter=0;endArrow=none;endFill=0;" edge="1" parent="1" source="0tF0IYAXUl_EJ7apRhJu-50" target="0tF0IYAXUl_EJ7apRhJu-5">
          <mxGeometry relative="1" as="geometry" />
        </mxCell>
        <mxCell id="0tF0IYAXUl_EJ7apRhJu-53" style="edgeStyle=none;rounded=0;orthogonalLoop=1;jettySize=auto;html=1;exitX=0.5;exitY=1;exitDx=0;exitDy=0;entryX=0.5;entryY=0;entryDx=0;entryDy=0;endArrow=none;endFill=0;" edge="1" parent="1" source="0tF0IYAXUl_EJ7apRhJu-52" target="0tF0IYAXUl_EJ7apRhJu-5">
          <mxGeometry relative="1" as="geometry" />
        </mxCell>
        <mxCell id="0tF0IYAXUl_EJ7apRhJu-52" value="телефон" style="ellipse;whiteSpace=wrap;html=1;" vertex="1" parent="1">
          <mxGeometry x="60" y="190" width="70" height="40" as="geometry" />
        </mxCell>
        <mxCell id="0tF0IYAXUl_EJ7apRhJu-54" value="адрес" style="ellipse;whiteSpace=wrap;html=1;" vertex="1" parent="1">
          <mxGeometry x="10" y="390" width="70" height="40" as="geometry" />
        </mxCell>
        <mxCell id="0tF0IYAXUl_EJ7apRhJu-55" style="edgeStyle=none;rounded=0;orthogonalLoop=1;jettySize=auto;html=1;exitX=0.5;exitY=0;exitDx=0;exitDy=0;entryX=0.212;entryY=1.031;entryDx=0;entryDy=0;entryPerimeter=0;endArrow=none;endFill=0;" edge="1" parent="1" source="0tF0IYAXUl_EJ7apRhJu-54" target="0tF0IYAXUl_EJ7apRhJu-5">
          <mxGeometry relative="1" as="geometry" />
        </mxCell>
        <mxCell id="0tF0IYAXUl_EJ7apRhJu-56" value="&lt;u&gt;ID&lt;/u&gt;" style="ellipse;whiteSpace=wrap;html=1;" vertex="1" parent="1">
          <mxGeometry x="90" y="380" width="70" height="40" as="geometry" />
        </mxCell>
        <mxCell id="0tF0IYAXUl_EJ7apRhJu-57" style="edgeStyle=none;rounded=0;orthogonalLoop=1;jettySize=auto;html=1;exitX=0.5;exitY=0;exitDx=0;exitDy=0;entryX=0.583;entryY=1.012;entryDx=0;entryDy=0;entryPerimeter=0;endArrow=none;endFill=0;" edge="1" parent="1" source="0tF0IYAXUl_EJ7apRhJu-56" target="0tF0IYAXUl_EJ7apRhJu-5">
          <mxGeometry relative="1" as="geometry" />
        </mxCell>
        <mxCell id="0tF0IYAXUl_EJ7apRhJu-61" style="edgeStyle=none;rounded=0;orthogonalLoop=1;jettySize=auto;html=1;exitX=1;exitY=0.5;exitDx=0;exitDy=0;entryX=0;entryY=0.5;entryDx=0;entryDy=0;dashed=1;" edge="1" parent="1" source="0tF0IYAXUl_EJ7apRhJu-59" target="0tF0IYAXUl_EJ7apRhJu-25">
          <mxGeometry relative="1" as="geometry" />
        </mxCell>
        <mxCell id="0tF0IYAXUl_EJ7apRhJu-59" value="ищет" style="rhombus;whiteSpace=wrap;html=1;" vertex="1" parent="1">
          <mxGeometry x="190" y="300" width="73.33" height="40" as="geometry" />
        </mxCell>
        <mxCell id="0tF0IYAXUl_EJ7apRhJu-60" style="edgeStyle=none;rounded=0;orthogonalLoop=1;jettySize=auto;html=1;exitX=0;exitY=0.5;exitDx=0;exitDy=0;entryX=1.007;entryY=0.431;entryDx=0;entryDy=0;entryPerimeter=0;" edge="1" parent="1" source="0tF0IYAXUl_EJ7apRhJu-59" target="0tF0IYAXUl_EJ7apRhJu-5">
          <mxGeometry relative="1" as="geometry" />
        </mxCell>
        <mxCell id="0tF0IYAXUl_EJ7apRhJu-62" value="M" style="text;html=1;align=center;verticalAlign=middle;whiteSpace=wrap;rounded=0;" vertex="1" parent="1">
          <mxGeometry x="120" y="300" width="60" height="20" as="geometry" />
        </mxCell>
        <mxCell id="0tF0IYAXUl_EJ7apRhJu-63" value="M" style="text;html=1;align=center;verticalAlign=middle;whiteSpace=wrap;rounded=0;" vertex="1" parent="1">
          <mxGeometry x="270" y="280" width="60" height="20" as="geometry" />
        </mxCell>
        <mxCell id="0tF0IYAXUl_EJ7apRhJu-64" value="&lt;font style=&quot;font-size: 14px;&quot;&gt;Аптека&lt;/font&gt;" style="rounded=0;whiteSpace=wrap;html=1;" vertex="1" parent="1">
          <mxGeometry x="210" y="470" width="120" height="60" as="geometry" />
        </mxCell>
        <mxCell id="0tF0IYAXUl_EJ7apRhJu-65" value="&lt;font style=&quot;font-size: 14px;&quot;&gt;Заказ&lt;/font&gt;" style="rounded=0;whiteSpace=wrap;html=1;" vertex="1" parent="1">
          <mxGeometry x="440" y="590" width="120" height="60" as="geometry" />
        </mxCell>
        <mxCell id="0tF0IYAXUl_EJ7apRhJu-67" style="edgeStyle=none;rounded=0;orthogonalLoop=1;jettySize=auto;html=1;entryX=0.75;entryY=0;entryDx=0;entryDy=0;exitX=0;exitY=0.5;exitDx=0;exitDy=0;" edge="1" parent="1" source="0tF0IYAXUl_EJ7apRhJu-66" target="0tF0IYAXUl_EJ7apRhJu-64">
          <mxGeometry relative="1" as="geometry" />
        </mxCell>
        <mxCell id="0tF0IYAXUl_EJ7apRhJu-68" style="edgeStyle=none;rounded=0;orthogonalLoop=1;jettySize=auto;html=1;entryX=0.5;entryY=1;entryDx=0;entryDy=0;" edge="1" parent="1" source="0tF0IYAXUl_EJ7apRhJu-66" target="0tF0IYAXUl_EJ7apRhJu-25">
          <mxGeometry relative="1" as="geometry" />
        </mxCell>
        <mxCell id="0tF0IYAXUl_EJ7apRhJu-66" value="предоставляет" style="rhombus;whiteSpace=wrap;html=1;" vertex="1" parent="1">
          <mxGeometry x="325" y="370" width="110" height="60" as="geometry" />
        </mxCell>
        <mxCell id="0tF0IYAXUl_EJ7apRhJu-69" value="1" style="text;html=1;align=center;verticalAlign=middle;whiteSpace=wrap;rounded=0;" vertex="1" parent="1">
          <mxGeometry x="260" y="450" width="60" height="20" as="geometry" />
        </mxCell>
        <mxCell id="0tF0IYAXUl_EJ7apRhJu-70" value="M" style="text;html=1;align=center;verticalAlign=middle;whiteSpace=wrap;rounded=0;" vertex="1" parent="1">
          <mxGeometry x="340" y="320" width="60" height="15" as="geometry" />
        </mxCell>
        <mxCell id="0tF0IYAXUl_EJ7apRhJu-74" style="edgeStyle=none;rounded=0;orthogonalLoop=1;jettySize=auto;html=1;exitX=1;exitY=0.5;exitDx=0;exitDy=0;entryX=0;entryY=0.5;entryDx=0;entryDy=0;endArrow=none;endFill=0;" edge="1" parent="1" source="0tF0IYAXUl_EJ7apRhJu-71" target="0tF0IYAXUl_EJ7apRhJu-64">
          <mxGeometry relative="1" as="geometry" />
        </mxCell>
        <mxCell id="0tF0IYAXUl_EJ7apRhJu-71" value="адрес" style="ellipse;whiteSpace=wrap;html=1;" vertex="1" parent="1">
          <mxGeometry x="110" y="490" width="70" height="40" as="geometry" />
        </mxCell>
        <mxCell id="0tF0IYAXUl_EJ7apRhJu-75" style="edgeStyle=none;rounded=0;orthogonalLoop=1;jettySize=auto;html=1;exitX=1;exitY=0.5;exitDx=0;exitDy=0;entryX=0;entryY=1;entryDx=0;entryDy=0;endArrow=none;endFill=0;" edge="1" parent="1" source="0tF0IYAXUl_EJ7apRhJu-72" target="0tF0IYAXUl_EJ7apRhJu-64">
          <mxGeometry relative="1" as="geometry" />
        </mxCell>
        <mxCell id="0tF0IYAXUl_EJ7apRhJu-72" value="часы работы" style="ellipse;whiteSpace=wrap;html=1;" vertex="1" parent="1">
          <mxGeometry x="115" y="540" width="70" height="40" as="geometry" />
        </mxCell>
        <mxCell id="0tF0IYAXUl_EJ7apRhJu-76" style="edgeStyle=none;rounded=0;orthogonalLoop=1;jettySize=auto;html=1;entryX=0.25;entryY=1;entryDx=0;entryDy=0;endArrow=none;endFill=0;" edge="1" parent="1" source="0tF0IYAXUl_EJ7apRhJu-73" target="0tF0IYAXUl_EJ7apRhJu-64">
          <mxGeometry relative="1" as="geometry" />
        </mxCell>
        <mxCell id="0tF0IYAXUl_EJ7apRhJu-73" value="&lt;u&gt;название&lt;/u&gt;" style="ellipse;whiteSpace=wrap;html=1;" vertex="1" parent="1">
          <mxGeometry x="191.66" y="560" width="70" height="40" as="geometry" />
        </mxCell>
        <mxCell id="0tF0IYAXUl_EJ7apRhJu-77" value="делает" style="rhombus;whiteSpace=wrap;html=1;" vertex="1" parent="1">
          <mxGeometry x="410" y="460" width="110" height="60" as="geometry" />
        </mxCell>
        <mxCell id="0tF0IYAXUl_EJ7apRhJu-78" style="edgeStyle=none;rounded=0;orthogonalLoop=1;jettySize=auto;html=1;exitX=0;exitY=0.5;exitDx=0;exitDy=0;" edge="1" parent="1" source="0tF0IYAXUl_EJ7apRhJu-77">
          <mxGeometry relative="1" as="geometry">
            <mxPoint x="330" y="493" as="targetPoint" />
          </mxGeometry>
        </mxCell>
        <mxCell id="0tF0IYAXUl_EJ7apRhJu-79" style="edgeStyle=none;rounded=0;orthogonalLoop=1;jettySize=auto;html=1;exitX=0.5;exitY=1;exitDx=0;exitDy=0;entryX=0.207;entryY=-0.005;entryDx=0;entryDy=0;entryPerimeter=0;dashed=1;" edge="1" parent="1" source="0tF0IYAXUl_EJ7apRhJu-77" target="0tF0IYAXUl_EJ7apRhJu-65">
          <mxGeometry relative="1" as="geometry" />
        </mxCell>
        <mxCell id="0tF0IYAXUl_EJ7apRhJu-80" value="1" style="text;html=1;align=center;verticalAlign=middle;whiteSpace=wrap;rounded=0;" vertex="1" parent="1">
          <mxGeometry x="310" y="470" width="60" height="20" as="geometry" />
        </mxCell>
        <mxCell id="0tF0IYAXUl_EJ7apRhJu-81" value="M" style="text;html=1;align=center;verticalAlign=middle;resizable=0;points=[];autosize=1;strokeColor=none;fillColor=none;" vertex="1" parent="1">
          <mxGeometry x="470" y="565" width="30" height="30" as="geometry" />
        </mxCell>
        <mxCell id="0tF0IYAXUl_EJ7apRhJu-82" value="&lt;u&gt;ID заказа&lt;/u&gt;" style="ellipse;whiteSpace=wrap;html=1;" vertex="1" parent="1">
          <mxGeometry x="379" y="670" width="70" height="40" as="geometry" />
        </mxCell>
        <mxCell id="0tF0IYAXUl_EJ7apRhJu-86" style="edgeStyle=none;rounded=0;orthogonalLoop=1;jettySize=auto;html=1;exitX=0.5;exitY=0;exitDx=0;exitDy=0;entryX=0.5;entryY=1;entryDx=0;entryDy=0;endArrow=none;endFill=0;" edge="1" parent="1" source="0tF0IYAXUl_EJ7apRhJu-83" target="0tF0IYAXUl_EJ7apRhJu-65">
          <mxGeometry relative="1" as="geometry" />
        </mxCell>
        <mxCell id="0tF0IYAXUl_EJ7apRhJu-83" value="сумма" style="ellipse;whiteSpace=wrap;html=1;" vertex="1" parent="1">
          <mxGeometry x="465" y="680" width="70" height="40" as="geometry" />
        </mxCell>
        <mxCell id="0tF0IYAXUl_EJ7apRhJu-84" value="дата заказа" style="ellipse;whiteSpace=wrap;html=1;" vertex="1" parent="1">
          <mxGeometry x="560" y="670" width="70" height="40" as="geometry" />
        </mxCell>
        <mxCell id="0tF0IYAXUl_EJ7apRhJu-85" style="edgeStyle=none;rounded=0;orthogonalLoop=1;jettySize=auto;html=1;exitX=0.5;exitY=0;exitDx=0;exitDy=0;entryX=0.136;entryY=1.019;entryDx=0;entryDy=0;entryPerimeter=0;endArrow=none;endFill=0;" edge="1" parent="1" source="0tF0IYAXUl_EJ7apRhJu-82" target="0tF0IYAXUl_EJ7apRhJu-65">
          <mxGeometry relative="1" as="geometry" />
        </mxCell>
        <mxCell id="0tF0IYAXUl_EJ7apRhJu-87" style="edgeStyle=none;rounded=0;orthogonalLoop=1;jettySize=auto;html=1;exitX=0.5;exitY=0;exitDx=0;exitDy=0;entryX=0.874;entryY=1.019;entryDx=0;entryDy=0;entryPerimeter=0;endArrow=none;endFill=0;" edge="1" parent="1" source="0tF0IYAXUl_EJ7apRhJu-84" target="0tF0IYAXUl_EJ7apRhJu-65">
          <mxGeometry relative="1" as="geometry" />
        </mxCell>
        <mxCell id="d452UMw9k4K0eZb1sNxr-2" style="edgeStyle=none;rounded=0;orthogonalLoop=1;jettySize=auto;html=1;exitX=0;exitY=1;exitDx=0;exitDy=0;entryX=1;entryY=0.25;entryDx=0;entryDy=0;endArrow=none;endFill=0;" edge="1" parent="1" source="d452UMw9k4K0eZb1sNxr-1" target="0tF0IYAXUl_EJ7apRhJu-25">
          <mxGeometry relative="1" as="geometry" />
        </mxCell>
        <mxCell id="d452UMw9k4K0eZb1sNxr-1" value="действующее вещество" style="ellipse;whiteSpace=wrap;html=1;" vertex="1" parent="1">
          <mxGeometry x="560" y="260" width="90" height="40" as="geometry" />
        </mxCell>
        <mxCell id="d452UMw9k4K0eZb1sNxr-12" value="" style="rounded=0;whiteSpace=wrap;html=1;fillColor=none;dashed=1;dashPattern=8 8;" vertex="1" parent="1">
          <mxGeometry x="335.5" y="25" width="109" height="50" as="geometry" />
        </mxCell>
      </root>
    </mxGraphModel>
  </diagram>
</mxfile>
